<svg xmlns="http://www.w3.org/2000/svg" version="1.0" width="900.000000pt" height="900.000000pt" viewBox="0 0 900.000000 900.000000" preserveAspectRatio="xMidYMid meet">
<metadata fill="#f1a45e">
Created by potrace 1.10, written by Peter Selinger 2001-2011
</metadata>
<g transform="translate(0.000000,900.000000) scale(0.100000,-0.100000)" fill="#f1a45e" stroke="none">
<path d="M6836 6968 c-11 -6 -47 -14 -80 -18 -122 -15 -199 -54 -274 -139 -48 -54 -69 -69 -97 -74 -20 -3 -54 -14 -76 -24 l-41 -18 7 -92 c7 -86 6 -93 -11 -93 -10 0 -30 12 -45 26 -33 31 -56 26 -84 -19 -18 -28 -26 -32 -65 -33 -64 -1 -90 -11 -135 -54 -41 -39 -163 -110 -189 -110 -8 0 -53 -20 -102 -45 -48 -25 -94 -45 -104 -45 -9 0 -21 -5 -27 -11 -13 -13 -87 -31 -123 -30 -14 1 -54 4 -90 7 -83 8 -134 41 -270 175 -55 54 -108 99 -117 99 -30 0 -145 -104 -302 -275 -40 -44 -110 -118 -155 -165 -97 -100 -136 -155 -136 -191 0 -19 14 -41 47 -73 25 -25 52 -46 59 -46 20 0 55 -56 61 -97 8 -52 29 -81 64 -88 49 -11 68 2 101 73 34 73 42 82 76 82 29 0 44 -38 36 -88 -9 -59 -57 -144 -91 -164 -28 -17 -34 -17 -84 -2 -127 37 -125 37 -150 24 -13 -7 -49 -38 -79 -69 -95 -96 -156 -137 -220 -147 -50 -8 -52 -27 -10 -86 20 -28 30 -53 30 -78 l0 -37 -76 -6 c-41 -3 -81 -10 -88 -16 -8 -6 -16 -28 -20 -49 -3 -20 -9 -51 -12 -69 -8 -42 20 -105 57 -127 26 -15 32 -16 57 -3 15 8 48 24 74 36 51 24 103 77 123 125 40 94 145 95 268 3 33 -26 37 -34 37 -73 0 -31 4 -44 14 -44 8 0 16 7 20 15 3 8 12 15 19 15 8 0 20 7 27 15 17 21 19 20 69 -25 51 -46 72 -50 95 -15 19 28 38 32 56 10 7 -8 25 -15 40 -15 15 0 41 -7 56 -15 16 -8 41 -15 55 -15 35 0 59 -29 59 -71 -1 -79 -115 -140 -176 -94 -22 17 -113 20 -164 5 -46 -13 -96 5 -137 50 -18 19 -33 38 -33 42 0 5 -19 21 -42 38 -40 29 -44 30 -152 30 -70 -1 -126 -6 -151 -15 -22 -8 -51 -15 -65 -15 -25 0 -113 -28 -137 -43 -32 -20 -203 -251 -203 -273 0 -4 -6 -15 -13 -23 -8 -9 -21 -41 -31 -71 -15 -50 -15 -60 -1 -113 8 -32 15 -70 15 -85 1 -38 52 -154 90 -202 18 -23 55 -52 83 -67 46 -23 59 -25 125 -19 40 3 81 10 92 16 29 15 129 10 185 -9 l50 -18 1 -76 c1 -51 6 -83 15 -95 22 -25 87 -255 109 -382 5 -25 13 -58 19 -73 6 -16 11 -44 11 -64 0 -20 6 -59 14 -87 8 -28 20 -89 26 -136 7 -47 16 -102 21 -122 l10 -38 69 0 c38 0 84 6 102 14 18 8 40 17 48 21 26 10 56 29 71 45 28 28 59 87 59 112 0 13 7 33 15 44 8 10 15 28 15 39 1 43 64 135 119 173 83 57 91 80 91 252 0 164 -4 152 90 260 66 76 150 195 150 214 0 8 7 19 15 26 11 9 15 27 13 59 l-3 46 -95 11 c-52 6 -110 19 -127 28 -32 17 -73 60 -73 78 0 4 -12 27 -27 51 -47 73 -63 106 -63 131 0 67 52 26 94 -74 26 -61 89 -138 128 -156 38 -17 66 -13 143 21 17 7 47 20 69 29 21 9 54 28 72 43 29 22 34 31 34 69 0 34 -7 51 -31 79 -20 22 -40 35 -56 35 -42 0 -113 48 -113 77 0 18 64 17 80 -2 7 -8 20 -15 29 -15 9 0 22 -5 29 -12 13 -13 117 -48 144 -48 48 0 200 -103 244 -165 30 -42 46 -73 108 -217 8 -18 22 -52 33 -75 10 -25 25 -43 34 -43 19 0 69 61 69 83 0 8 7 20 15 27 8 7 15 18 15 24 0 18 91 149 147 211 l52 57 29 -20 c15 -12 58 -52 95 -91 69 -74 87 -112 87 -188 0 -47 18 -67 34 -38 6 10 21 29 32 43 l21 26 16 -30 c29 -57 41 -60 97 -25 28 17 54 31 58 31 4 0 17 11 30 24 25 27 28 62 7 90 -19 26 -29 95 -17 127 8 21 22 29 79 43 37 9 81 23 96 31 16 8 33 15 39 15 6 0 27 13 47 29 50 40 69 96 53 157 -7 24 -12 55 -12 67 0 13 -7 32 -15 43 -26 34 -19 91 17 138 48 61 70 77 87 63 10 -8 11 -26 7 -67 -9 -76 8 -100 56 -82 19 6 42 12 51 12 30 0 47 40 47 116 0 81 2 84 123 209 37 39 80 88 95 110 15 22 30 42 35 43 4 2 7 12 7 23 0 11 7 31 16 44 9 14 16 48 17 81 1 53 -1 59 -31 84 -18 14 -32 34 -32 43 0 36 52 99 113 137 102 65 181 53 228 -35 16 -30 19 -57 19 -179 0 -143 9 -183 30 -134 5 13 14 31 20 41 5 9 15 25 20 35 6 9 13 24 17 32 8 18 63 91 79 105 28 24 74 100 74 122 0 46 53 112 91 113 9 0 22 7 29 15 7 8 17 15 23 15 6 0 43 16 81 36 156 79 164 87 168 168 3 59 4 61 31 64 16 2 38 -3 50 -11 12 -7 35 -17 51 -21 25 -6 34 -1 77 43 27 28 54 51 59 51 6 0 10 14 10 30 0 18 -5 30 -13 30 -7 0 -24 13 -37 28 -27 30 -224 182 -236 182 -4 0 -15 6 -23 14 -9 7 -42 28 -73 45 -50 27 -68 31 -150 35 -102 4 -149 14 -252 57 -38 16 -77 29 -86 29 -10 0 -31 6 -47 14 -57 28 -206 63 -319 75 -43 5 -92 14 -107 20 -16 6 -45 11 -65 11 -20 0 -54 6 -77 14 -22 7 -67 21 -100 31 -99 29 -125 46 -232 147 -120 114 -166 138 -262 138 -36 0 -75 -6 -85 -12z" fill="#f1a45e"/>
<path d="M2778 6833 c-20 -5 -24 -28 -8 -38 6 -3 10 -21 10 -38 0 -18 7 -64 15 -102 8 -39 15 -101 15 -139 0 -62 3 -72 30 -103 25 -27 30 -43 30 -82 0 -27 -7 -66 -16 -87 -18 -43 -15 -147 5 -167 6 -6 11 -22 11 -35 0 -21 12 -51 41 -102 5 -8 12 -22 15 -30 37 -89 90 -170 122 -186 13 -6 33 -21 46 -33 12 -11 25 -21 28 -21 11 0 48 71 48 91 0 11 5 30 12 42 6 12 15 38 19 57 15 67 41 127 67 156 23 26 83 70 167 124 104 67 149 102 208 163 l67 70 0 76 c0 42 -5 94 -10 116 -10 46 0 84 49 179 35 68 37 81 15 90 -18 7 -960 6 -986 -1z" fill="#f1a45e"/>
<path d="M251 6455 c-18 -8 -48 -29 -65 -46 -17 -17 -55 -49 -83 -71 l-53 -40 3 -62 c2 -54 -1 -65 -27 -98 -31 -41 -31 -29 -8 -238 11 -100 39 -159 89 -187 23 -13 142 -42 203 -50 31 -4 76 11 140 46 88 48 111 51 170 21 30 -15 46 -33 65 -74 14 -29 25 -56 25 -60 0 -20 61 -82 130 -132 167 -120 208 -202 225 -448 4 -50 13 -105 21 -124 8 -19 14 -43 14 -54 0 -24 35 -87 94 -170 53 -74 134 -192 156 -228 68 -112 74 -116 86 -55 8 46 32 45 61 -1 13 -20 23 -39 23 -44 0 -15 121 -120 139 -120 10 0 35 -7 54 -15 20 -8 48 -15 62 -15 33 0 90 -29 143 -74 23 -19 66 -47 95 -61 96 -49 108 -57 153 -99 37 -36 44 -49 44 -81 0 -22 -6 -57 -14 -80 -51 -146 -51 -146 -26 -200 79 -175 92 -196 182 -294 l68 -73 0 -92 c-1 -50 -6 -111 -11 -136 -6 -25 -14 -82 -19 -128 -5 -45 -12 -88 -16 -94 -4 -6 -10 -74 -14 -152 -4 -78 -12 -159 -19 -181 -6 -22 -11 -94 -11 -161 l0 -120 34 -48 c35 -49 58 -69 116 -98 36 -19 95 -24 104 -9 3 4 -6 31 -19 60 -29 60 -32 107 -7 141 13 20 17 46 17 127 0 68 4 106 13 114 6 7 12 19 12 25 0 7 43 52 95 101 53 48 174 178 269 288 95 110 201 227 234 259 72 70 128 176 151 286 4 19 13 45 19 57 7 12 13 56 15 97 2 71 0 77 -23 93 -14 10 -52 26 -85 36 -33 10 -81 24 -106 32 -26 8 -60 15 -76 15 -23 0 -56 25 -172 135 -79 74 -150 135 -158 135 -8 0 -27 6 -41 14 -54 27 -103 46 -123 46 -11 0 -34 7 -51 16 -46 24 -224 25 -258 2 -15 -12 -43 -18 -75 -18 -45 0 -54 4 -73 30 -12 16 -22 33 -22 38 0 14 -45 52 -63 52 -23 0 -37 31 -37 85 0 50 -23 105 -44 105 -7 0 -39 -20 -72 -45 -76 -58 -99 -58 -124 -2 -19 42 -27 156 -14 192 13 34 78 55 168 55 85 0 85 0 123 -37 21 -21 47 -51 58 -67 18 -26 23 -28 43 -17 18 10 22 20 22 64 0 44 6 61 41 112 22 33 48 68 56 78 18 19 30 40 67 114 24 47 71 94 123 121 12 7 27 18 35 24 21 20 177 112 243 144 33 15 83 30 110 34 l50 5 -3 35 c-2 19 -10 43 -18 54 -8 11 -14 30 -14 41 0 11 -7 29 -15 39 -8 11 -15 27 -15 37 0 20 -50 116 -99 189 -21 30 -47 76 -59 103 -12 26 -31 67 -42 91 -28 60 -44 63 -77 16 -39 -55 -71 -54 -98 1 -24 50 -77 96 -128 110 -50 13 -97 3 -97 -21 0 -9 -7 -34 -15 -53 -19 -45 -20 -136 -1 -162 23 -34 28 -98 9 -125 -9 -13 -19 -51 -22 -84 -5 -52 -9 -61 -27 -64 -32 -5 -55 30 -61 92 -6 53 -7 56 -34 56 -33 0 -90 24 -139 60 -19 14 -52 34 -73 44 -61 32 -67 58 -38 176 9 34 24 57 64 93 54 50 55 50 129 31 29 -7 87 14 121 44 16 14 16 17 -8 48 -30 39 -31 51 -8 77 25 27 24 164 -1 202 -51 77 -97 86 -190 36 -66 -35 -111 -47 -121 -31 -13 22 -49 28 -85 15 -73 -27 -130 -37 -181 -32 -175 17 -318 42 -345 59 -34 23 -104 38 -129 28 -14 -5 -78 -10 -141 -10 -89 0 -120 -4 -139 -16 -23 -15 -28 -15 -65 0 -22 9 -50 16 -63 16 -22 0 -108 25 -139 41 -36 18 -105 41 -163 53 -33 7 -67 16 -75 19 -8 4 -30 0 -49 -8z" fill="#f1a45e"/>
<path d="M7810 5138 c-26 -42 -50 -92 -50 -108 0 -8 -7 -24 -15 -34 -8 -11 -15 -28 -15 -38 0 -9 -6 -32 -14 -50 -8 -18 -17 -40 -21 -48 -16 -40 -37 -64 -97 -109 -66 -50 -115 -112 -103 -131 10 -17 24 -12 102 35 40 25 77 45 81 45 4 0 31 21 60 46 51 45 52 47 52 102 1 67 17 116 53 164 31 40 33 61 12 112 -18 42 -25 44 -45 14z" fill="#f1a45e"/>
<path d="M6620 3880 c0 -6 12 -29 27 -53 35 -54 49 -77 63 -102 26 -48 37 -64 70 -101 34 -39 34 -39 102 -36 66 3 83 -2 148 -39 32 -19 41 -21 64 -15 14 3 28 16 31 27 6 18 12 20 44 14 51 -10 60 -9 114 10 55 20 63 38 53 118 -14 105 -65 114 -158 29 -36 -33 -59 -24 -51 22 7 43 -2 82 -21 89 -18 7 -112 -26 -146 -51 -13 -10 -32 -32 -40 -48 -9 -16 -24 -30 -33 -32 -10 -2 -41 16 -70 41 -84 70 -175 137 -186 137 -6 0 -11 -5 -11 -10z" fill="#f1a45e"/>
<path d="M7553 3715 c-7 -20 31 -53 82 -70 24 -8 31 -16 33 -43 3 -27 12 -39 50 -63 31 -19 59 -29 86 -29 23 0 59 -5 81 -11 52 -14 82 -14 100 1 14 11 14 15 1 29 -8 9 -16 29 -18 45 -2 22 -12 35 -38 49 -19 10 -44 27 -55 37 -13 12 -62 25 -145 38 -69 12 -135 24 -147 28 -17 4 -25 1 -30 -11z" fill="#f1a45e"/>
<path d="M7558 3446 c-21 -6 -54 -28 -75 -48 -34 -33 -43 -37 -74 -32 -31 5 -40 2 -70 -28 -19 -19 -49 -53 -67 -76 -23 -30 -45 -45 -75 -53 -23 -6 -62 -20 -86 -30 l-44 -20 8 -77 c10 -95 10 -153 0 -213 -9 -58 2 -80 50 -98 31 -11 46 -11 79 -1 46 14 104 35 154 56 18 8 43 14 56 14 13 0 43 7 66 15 23 8 46 15 50 15 3 0 47 -39 96 -87 126 -124 124 -123 225 -123 72 0 91 3 112 21 26 19 67 97 67 125 0 7 6 28 14 46 29 68 46 134 46 174 0 37 -7 49 -87 137 -49 52 -95 110 -104 129 -8 18 -24 51 -33 73 -46 102 -61 113 -88 66 -19 -34 -92 -84 -116 -79 -11 2 -19 16 -22 42 -7 51 -32 67 -82 52z" fill="#f1a45e"/>
</g>
</svg>